<svg id="visual" viewBox="0 0 900 600" width="900" height="600" xmlns="http://www.w3.org/2000/svg" xmlns:xlink="http://www.w3.org/1999/xlink" version="1.1"><rect x="0" y="0" width="900" height="600" fill="#001220"></rect><defs><linearGradient id="grad1_0" x1="33.3%" y1="0%" x2="100%" y2="100%"><stop offset="20%" stop-color="#fbae3c" stop-opacity="1"></stop><stop offset="80%" stop-color="#fbae3c" stop-opacity="1"></stop></linearGradient></defs><defs><linearGradient id="grad1_1" x1="33.3%" y1="0%" x2="100%" y2="100%"><stop offset="20%" stop-color="#fbae3c" stop-opacity="1"></stop><stop offset="80%" stop-color="#96446e" stop-opacity="1"></stop></linearGradient></defs><defs><linearGradient id="grad1_2" x1="33.3%" y1="0%" x2="100%" y2="100%"><stop offset="20%" stop-color="#001220" stop-opacity="1"></stop><stop offset="80%" stop-color="#96446e" stop-opacity="1"></stop></linearGradient></defs><defs><linearGradient id="grad2_0" x1="0%" y1="0%" x2="66.7%" y2="100%"><stop offset="20%" stop-color="#fbae3c" stop-opacity="1"></stop><stop offset="80%" stop-color="#fbae3c" stop-opacity="1"></stop></linearGradient></defs><defs><linearGradient id="grad2_1" x1="0%" y1="0%" x2="66.7%" y2="100%"><stop offset="20%" stop-color="#96446e" stop-opacity="1"></stop><stop offset="80%" stop-color="#fbae3c" stop-opacity="1"></stop></linearGradient></defs><defs><linearGradient id="grad2_2" x1="0%" y1="0%" x2="66.7%" y2="100%"><stop offset="20%" stop-color="#96446e" stop-opacity="1"></stop><stop offset="80%" stop-color="#001220" stop-opacity="1"></stop></linearGradient></defs><g transform="translate(900, 0)"><path d="M0 459.7C-67.9 461.4 -135.9 463.1 -175.9 424.7C-216 386.3 -228.2 307.8 -260.2 260.2C-292.2 212.6 -344.1 195.9 -380.6 157.7C-417.2 119.4 -438.4 59.7 -459.7 0L0 0Z" fill="#3d3056"></path><path d="M0 306.5C-45.3 307.6 -90.6 308.7 -117.3 283.1C-144 257.5 -152.1 205.2 -173.5 173.5C-194.8 141.7 -229.4 130.6 -253.8 105.1C-278.1 79.6 -292.3 39.8 -306.5 0L0 0Z" fill="#e1685e"></path><path d="M0 153.2C-22.6 153.8 -45.3 154.4 -58.6 141.6C-72 128.8 -76.1 102.6 -86.7 86.7C-97.4 70.9 -114.7 65.3 -126.9 52.6C-139.1 39.8 -146.1 19.9 -153.2 0L0 0Z" fill="#fbae3c"></path></g><g transform="translate(0, 600)"><path d="M0 -459.7C55.1 -427.8 110.2 -395.8 149.6 -361.2C189 -326.7 212.7 -289.5 262.3 -262.3C312 -235.2 387.5 -218 424.7 -175.9C461.9 -133.9 460.8 -66.9 459.7 0L0 0Z" fill="#3d3056"></path><path d="M0 -306.5C36.7 -285.2 73.5 -263.9 99.8 -240.8C126 -217.8 141.8 -193 174.9 -174.9C208 -156.8 258.3 -145.3 283.1 -117.3C308 -89.2 307.2 -44.6 306.5 0L0 0Z" fill="#e1685e"></path><path d="M0 -153.2C18.4 -142.6 36.7 -131.9 49.9 -120.4C63 -108.9 70.9 -96.5 87.4 -87.4C104 -78.4 129.2 -72.7 141.6 -58.6C154 -44.6 153.6 -22.3 153.2 0L0 0Z" fill="#fbae3c"></path></g></svg>