<?xml version="1.0" encoding="utf-8"?>
<!-- Generator: Adobe Illustrator 15.0.2, SVG Export Plug-In . SVG Version: 6.00 Build 0)  -->
<!DOCTYPE svg PUBLIC "-//W3C//DTD SVG 1.1//EN" "http://www.w3.org/Graphics/SVG/1.1/DTD/svg11.dtd">
<svg version="1.1" id="Layer_1" xmlns="http://www.w3.org/2000/svg" xmlns:xlink="http://www.w3.org/1999/xlink" x="0px" y="0px"
	 width="800px" height="800px" viewBox="0 0 800 800" enable-background="new 0 0 800 800" xml:space="preserve">
<rect opacity="0.8" fill="#F6B924" enable-background="new    " width="800" height="800"/>
<g>
	<g id="XMLID_6_">
		<g>
			<path fill="#FFFFFF" d="M757.837,347.177c0.563,2.37,2.152,5.565,1.62,7.74c-0.729,3-3.293,6.18-5.04,9.36
				c-4.186,7.62-8.692,14.873-13.32,22.68c-0.779,1.305-2.018,4.095-2.88,4.14c-1.236,0.06-2.992-3.735-3.42-4.5
				c-2.213-3.952-3.3-6.015-5.58-9.9c-0.795-1.357-2.609-3.93-2.521-5.22c0.083-1.17,2.228-2.85,3.42-4.14
				c3.563-3.848,7.229-8.145,10.62-11.7c5.151-5.407,9.96-11.002,14.399-15.48c0.271-0.42,0.442-0.277,0.9-0.18
				C757.079,342.047,757.214,344.56,757.837,347.177z"/>
			<path fill="#FFFFFF" d="M718.957,371.477c0.119,1.522-1.905,3.645-2.7,5.04c-2.123,3.72-3.255,6.262-5.399,10.08
				c-0.556,0.983-2.242,4.41-3.24,4.5c-1.447,0.128-5.234-7.282-5.939-8.46c-4.643-7.74-8.609-14.962-13.14-22.86
				c-0.953-1.665-2.625-3.705-2.7-5.4c-0.09-2.1,0.907-4.485,1.439-7.02c0.638-3.022,0.795-5.85,1.8-7.38
				c2.183,1.035,5.618,5.272,7.739,7.74c2.37,2.752,5.019,5.033,7.562,7.74c3.457,3.675,7.327,7.83,11.16,11.88
				C716.677,368.537,718.874,370.427,718.957,371.477z"/>
			<path fill="#FFFFFF" d="M730.656,382.997c-0.556,1.837-1.417,3.375-2.699,4.5c-3.48-0.12-7.433,0.232-10.62-0.18
				c-0.623-0.81-2.468-2.355-2.521-3.78c-0.045-1.088,1.446-3.098,2.34-4.68c0.78-1.388,1.92-4.11,2.881-4.68
				c1.244-0.75,3.892-0.188,5.22-0.36C727.379,376.554,728.879,379.915,730.656,382.997z"/>
			<path fill="#FFFFFF" d="M791.316,356.717c0,40.86,0,81.72,0,122.58c-10.261,0-20.521,0-30.779,0c-5.102,0-10.2,0-15.301,0
				c-4.756-0.202-11.176,0.428-14.761-0.36c1.65-2.481,3.931-4.903,6.301-7.56c2.122-2.385,5.678-4.815,6.479-7.92
				c0.811-3.135-0.405-6.968-0.9-10.26c-2.895-19.373-5.76-41.04-8.64-59.4c6.81,5.228,10.223-2.692,12.78-7.02
				c5.917-10.005,12.09-20.88,17.46-30.06C773.076,356.717,782.196,356.717,791.316,356.717z"/>
			<path fill="#FFFFFF" d="M750.457,339.437c-0.173,1.65-1.681,2.745-2.7,3.96c-3,3.563-6.338,7.462-9.54,10.98
				c-7.328,0.322-15.203,0.18-23.04,0.18c-2.535,0-5.543,0.45-7.561-0.18c-1.342-0.428-2.347-2.01-3.601-3.42
				c-2.55-2.873-4.236-4.627-6.659-7.38c-1.08-1.23-2.386-2.475-2.7-3.96c1.006-0.93,4.92-0.54,7.561-0.54
				C717.861,339.077,735.6,338.784,750.457,339.437z"/>
			<path fill="#FFFFFF" d="M737.856,454.277c0.367,2.512,1.47,5.85,1.079,7.738c-0.308,1.479-2.541,3.271-3.779,4.682
				c-2.896,3.276-5.146,5.595-7.92,8.64c-1.245,1.365-2.34,3.3-4.319,3.96c-2.558-0.263-3.098-2.542-4.5-3.96
				c-3.104-3.098-5.978-6.21-9.181-9.72c-2.527-2.775-2.851-3.397-2.16-8.28c2.79-19.845,5.813-39.787,8.641-59.22
				c0.429-2.955,0.255-6.045,1.62-8.64c2.677-0.368,8.146-0.84,10.979,0.18c1.29,3.45,1.071,6.18,1.62,10.26
				c1.913,14.188,4.665,30.945,6.84,46.62C737.084,448.757,737.467,451.562,737.856,454.277z"/>
			<path fill="#FFFFFF" d="M714.997,479.297c-20.341,0-40.681,0-61.021,0c0-3.6,0-7.2,0-10.8c0-8.641,0-17.28,0-25.92
				c0-6.36,0-12.721,0-19.08c0-9.479,0-18.96,0-28.44c0-6.78,0-13.56,0-20.34c0.322-3.982,0.181-8.955,0.181-13.5
				c0-0.945-0.202-4.185,0.181-4.5c0.607-0.502,5.558,0,6.84,0c7.162,0,14.002,0,20.521,0c5.408,10.028,11.603,20.085,17.28,29.7
				c1.883,3.18,3.156,7.328,6.84,9c1.38-0.053,2.521,0.143,3.601-0.18c0.997-0.3,1.672-1.47,2.159-1.08
				c-2.579,18.12-5.632,39.93-8.46,58.859c-0.585,3.938-1.725,8.573-0.359,11.521c1.224,2.632,4.104,4.942,6.301,7.38
				c1.103,1.215,2.183,2.452,3.239,3.6C713.354,476.672,714.869,477.737,714.997,479.297z"/>
		</g>
	</g>
</g>
<g>
	<path fill="#FFFFFF" d="M161.252,365.82h2.76c0-4.839,1.2-8.41,3.6-10.71c2.4-2.3,5.859-3.45,10.38-3.45c1.72,0,3.32,0.15,4.8,0.45
		c1.479,0.3,2.72,0.67,3.72,1.11v9.42c-1-0.12-1.83-0.2-2.49-0.24c-0.66-0.04-1.391-0.06-2.19-0.06c-1.56,0-2.64,0.26-3.24,0.78
		c-0.6,0.521-0.9,1.42-0.9,2.7h4.68v9.84h-4.68v13.68h4.68v9.84h-21.12v-9.84h2.64v-13.68h-2.64V365.82z"/>
	<path fill="#FFFFFF" d="M184.051,365.82h16.44v3.96l0.6,0.18c0.279-0.56,0.639-1.14,1.08-1.74c0.439-0.6,0.979-1.14,1.62-1.62
		c0.64-0.48,1.37-0.87,2.19-1.17c0.82-0.3,1.75-0.45,2.79-0.45c0.84,0,1.66,0.06,2.46,0.18c0.8,0.12,1.6,0.34,2.4,0.66v10.38
		c-1.32-0.24-2.43-0.39-3.33-0.45s-1.65-0.09-2.25-0.09c-2.64,0-4.56,0.591-5.76,1.77c-1.2,1.18-1.8,3.21-1.8,6.09v5.82h5.46v9.84
		h-21.9v-9.84h2.64v-13.68h-2.64V365.82z"/>
	<path fill="#FFFFFF" d="M232.831,364.98c3.08,0,5.64,0.45,7.68,1.35c2.04,0.9,3.68,2.07,4.92,3.51
		c1.239,1.44,2.109,3.081,2.61,4.92c0.5,1.84,0.75,3.7,0.75,5.58v4.32h-19.44v0.36c0,1.44,0.41,2.52,1.23,3.24
		c0.819,0.72,2.31,1.08,4.47,1.08c2.64,0,5.06-0.2,7.26-0.6c2.199-0.399,4.02-0.84,5.46-1.32v9.6c-0.72,0.36-1.551,0.711-2.49,1.05
		c-0.94,0.34-2.01,0.66-3.21,0.96c-1.2,0.3-2.56,0.54-4.08,0.72c-1.521,0.18-3.24,0.27-5.16,0.27c-2.76,0-5.26-0.36-7.5-1.08
		c-2.241-0.72-4.15-1.809-5.73-3.27c-1.581-1.46-2.79-3.28-3.63-5.46c-0.84-2.18-1.26-4.749-1.26-7.71c0-2.919,0.42-5.479,1.26-7.68
		c0.84-2.2,2.049-4.029,3.63-5.49c1.58-1.459,3.489-2.55,5.73-3.27C227.571,365.34,230.071,364.98,232.831,364.98z M232.831,375.66
		c-1.161,0-2.031,0.3-2.61,0.9c-0.581,0.6-0.87,1.581-0.87,2.94v0.36h6.96v-0.36c0-1.359-0.291-2.34-0.87-2.94
		C234.861,375.96,233.991,375.66,232.831,375.66z"/>
	<path fill="#FFFFFF" d="M271.831,395.1c-0.36,0.48-0.84,1.011-1.44,1.59c-0.6,0.581-1.29,1.11-2.07,1.59
		c-0.78,0.48-1.66,0.891-2.64,1.23c-0.98,0.339-2.031,0.51-3.15,0.51c-4.161,0-7.25-1.53-9.27-4.59
		c-2.021-3.06-3.03-7.37-3.03-12.93c0-5.559,1.009-9.87,3.03-12.93c2.02-3.06,5.109-4.59,9.27-4.59c1.119,0,2.169,0.171,3.15,0.51
		c0.98,0.34,1.86,0.75,2.64,1.23c0.78,0.48,1.47,1.011,2.07,1.59c0.6,0.581,1.08,1.11,1.44,1.59v-4.08h16.44v9.84h-2.64v36.84
		h-17.94v-9.84h4.14V395.1z M264.871,385.5c0,1.36,0.29,2.34,0.87,2.94c0.58,0.6,1.449,0.9,2.61,0.9c1.16,0,2.03-0.3,2.61-0.9
		c0.579-0.6,0.87-1.58,0.87-2.94v-6c0-1.359-0.291-2.34-0.87-2.94c-0.581-0.6-1.451-0.9-2.61-0.9c-1.161,0-2.03,0.3-2.61,0.9
		c-0.58,0.6-0.87,1.581-0.87,2.94V385.5z"/>
	<path fill="#FFFFFF" d="M305.31,385.5c0,1.36,0.29,2.34,0.87,2.94c0.58,0.6,1.449,0.9,2.61,0.9c1.159,0,2.029-0.3,2.61-0.9
		c0.579-0.6,0.869-1.58,0.869-2.94v-9.84h-3.239v-9.84h17.04v23.52h2.64v9.84h-16.44v-4.08c-0.479,0.521-1.03,1.061-1.649,1.62
		c-0.621,0.561-1.33,1.08-2.13,1.56c-0.801,0.48-1.721,0.891-2.76,1.23c-1.041,0.339-2.241,0.51-3.601,0.51
		c-3.28,0-5.87-1.17-7.77-3.51c-1.9-2.34-2.851-6.009-2.851-11.01v-9.84h-2.64v-9.84h16.439V385.5z"/>
	<path fill="#FFFFFF" d="M347.909,364.98c3.08,0,5.641,0.45,7.681,1.35s3.68,2.07,4.92,3.51c1.239,1.44,2.109,3.081,2.609,4.92
		c0.5,1.84,0.75,3.7,0.75,5.58v4.32H344.43v0.36c0,1.44,0.409,2.52,1.229,3.24c0.819,0.72,2.311,1.08,4.471,1.08
		c2.64,0,5.06-0.2,7.26-0.6c2.199-0.399,4.02-0.84,5.46-1.32v9.6c-0.72,0.36-1.551,0.711-2.49,1.05c-0.94,0.34-2.01,0.66-3.21,0.96
		c-1.2,0.3-2.561,0.54-4.08,0.72c-1.521,0.18-3.24,0.27-5.16,0.27c-2.76,0-5.26-0.36-7.5-1.08c-2.24-0.72-4.15-1.809-5.729-3.27
		c-1.581-1.46-2.79-3.28-3.63-5.46c-0.84-2.18-1.26-4.749-1.26-7.71c0-2.919,0.42-5.479,1.26-7.68c0.84-2.2,2.049-4.029,3.63-5.49
		c1.579-1.459,3.489-2.55,5.729-3.27C342.649,365.34,345.149,364.98,347.909,364.98z M347.909,375.66c-1.16,0-2.03,0.3-2.609,0.9
		c-0.58,0.6-0.87,1.581-0.87,2.94v0.36h6.96v-0.36c0-1.359-0.291-2.34-0.87-2.94C349.939,375.96,349.069,375.66,347.909,375.66z"/>
	<path fill="#FFFFFF" d="M386.31,389.34h2.641v-9.84c0-1.359-0.291-2.34-0.87-2.94c-0.58-0.6-1.45-0.9-2.61-0.9s-2.03,0.3-2.61,0.9
		s-0.869,1.581-0.869,2.94v9.84h2.64v9.84h-19.08v-9.84h2.64v-13.68h-2.64v-9.84h16.44v4.08c0.479-0.48,1.02-1.01,1.619-1.59
		c0.601-0.579,1.311-1.11,2.131-1.59c0.819-0.48,1.749-0.89,2.79-1.23c1.039-0.339,2.239-0.51,3.6-0.51c3.279,0,5.87,1.17,7.77,3.51
		s2.851,6.01,2.851,11.01v9.84h2.64v9.84h-19.08V389.34z"/>
	<path fill="#FFFFFF" d="M423.389,365.82h8.101v9.84h-8.101v9.84c0,1.36,0.29,2.34,0.87,2.94c0.58,0.6,1.45,0.9,2.61,0.9
		c1.6,0,3.26-0.18,4.98-0.54v9.42c-1.281,0.48-2.812,0.9-4.591,1.26c-1.78,0.36-3.689,0.54-5.729,0.54s-3.851-0.22-5.43-0.66
		c-1.581-0.44-2.91-1.19-3.99-2.25c-1.08-1.06-1.911-2.45-2.49-4.17c-0.58-1.719-0.87-3.859-0.87-6.42v-10.86h-2.64v-9.84
		c1.6,0,2.76-0.41,3.479-1.23c0.721-0.819,1.08-1.87,1.08-3.15v-2.7h12.72V365.82z"/>
	<path fill="#FFFFFF" d="M432.269,352.5h16.439v36.84h2.641v9.84h-19.08v-9.84h2.64v-27h-2.64V352.5z"/>
	<path fill="#FFFFFF" d="M468.508,385.5c0,1.36,0.29,2.34,0.87,2.94c0.58,0.6,1.449,0.9,2.61,0.9c1.159,0,2.029-0.3,2.61-0.9
		c0.579-0.6,0.869-1.58,0.869-2.94v-9.84h-3.239v-9.84h17.04v30c0,6-1.511,10.42-4.53,13.26c-3.021,2.84-7.53,4.26-13.53,4.26
		c-2.88,0-5.67-0.189-8.37-0.57c-2.699-0.38-4.99-0.85-6.87-1.409v-9.841c2.2,0.4,4.29,0.69,6.271,0.871
		c1.979,0.18,4.229,0.27,6.75,0.27c2.16,0,3.78-0.33,4.86-0.99s1.619-2.01,1.619-4.05v-2.52c-0.479,0.521-1.03,1.061-1.649,1.62
		c-0.621,0.561-1.33,1.08-2.13,1.56c-0.801,0.48-1.721,0.891-2.76,1.23c-1.041,0.339-2.241,0.51-3.601,0.51
		c-3.28,0-5.87-1.17-7.77-3.51c-1.9-2.34-2.851-6.009-2.851-11.01v-9.84h-2.64v-9.84h16.439V385.5z"/>
	<path fill="#FFFFFF" d="M93.752,467.1c-0.36,0.48-0.84,1.012-1.44,1.59c-0.6,0.581-1.331,1.111-2.19,1.591
		c-0.861,0.479-1.86,0.891-3,1.229c-1.14,0.34-2.43,0.51-3.87,0.51c-3.48,0-6.201-0.8-8.16-2.399c-1.96-1.599-2.94-3.919-2.94-6.96
		c0-3.8,1.77-6.67,5.31-8.609c3.54-1.94,8.97-2.91,16.29-2.91c0-1.119-0.36-1.98-1.08-2.58c-0.72-0.601-2.2-0.9-4.44-0.9
		c-2.4,0-4.811,0.18-7.23,0.54c-2.421,0.36-4.65,0.761-6.69,1.2v-10.32c2.04-0.56,4.539-1.05,7.5-1.47c2.959-0.421,6-0.63,9.12-0.63
		c3.2,0,5.87,0.3,8.01,0.9c2.139,0.6,3.849,1.51,5.13,2.729c1.28,1.22,2.18,2.74,2.7,4.56c0.519,1.82,0.78,3.93,0.78,6.33v9.84h2.64
		v9.84h-16.44V467.1z M93.752,457.141c-2.48,0-4.26,0.17-5.34,0.51c-1.08,0.34-1.62,0.93-1.62,1.77c0,1.281,1.1,1.92,3.3,1.92
		c2.439,0,3.66-1.279,3.66-3.84V457.141z"/>
	<path fill="#FFFFFF" d="M112.892,461.82c3,0.44,5.46,0.73,7.38,0.869c1.92,0.141,3.44,0.211,4.56,0.211
		c1.76,0,2.919-0.141,3.48-0.42c0.56-0.279,0.84-0.66,0.84-1.141c0-0.52-0.3-0.909-0.9-1.17c-0.6-0.26-1.84-0.529-3.72-0.81
		c-4.161-0.56-7.431-1.76-9.81-3.601c-2.38-1.839-3.57-4.439-3.57-7.8c0-1.56,0.279-3.009,0.84-4.35
		c0.56-1.34,1.459-2.499,2.7-3.479c1.239-0.98,2.83-1.75,4.77-2.311c1.94-0.561,4.27-0.84,6.99-0.84c2.959,0,5.629,0.172,8.01,0.514
		c2.379,0.342,4.35,0.775,5.91,1.299v8.146c-1.92-0.239-3.861-0.439-5.82-0.6c-1.96-0.159-3.82-0.24-5.58-0.24
		c-1.68,0-2.871,0.121-3.57,0.359c-0.7,0.24-1.05,0.6-1.05,1.078c0,0.239,0.06,0.449,0.18,0.629c0.12,0.18,0.35,0.339,0.69,0.479
		c0.339,0.14,0.81,0.26,1.41,0.359c0.6,0.1,1.359,0.189,2.28,0.269c4.64,0.44,8.06,1.577,10.26,3.413c2.2,1.836,3.3,4.449,3.3,7.841
		c0,3.552-1.221,6.356-3.66,8.411c-2.44,2.055-6.261,3.082-11.46,3.082c-3.041,0-5.811-0.18-8.31-0.539
		c-2.5-0.36-4.551-0.8-6.15-1.32V461.82z"/>
	<path fill="#FFFFFF" d="M179.432,447.66l-5.1,5.7l5.76,7.979h2.58v9.84h-14.7l-6.18-11.52h-1.44v11.52h-16.44v-9.84h2.64v-27h-2.64
		v-9.84h16.44v24.36h1.44l7.44-11.04h12.66v9.84H179.432z"/>
	<path fill="#FFFFFF" d="M201.872,436.98c3.08,0,5.64,0.449,7.68,1.35c2.04,0.9,3.68,2.07,4.92,3.51
		c1.239,1.44,2.109,3.081,2.61,4.92c0.5,1.841,0.75,3.701,0.75,5.58v4.32h-19.44v0.359c0,1.44,0.41,2.521,1.23,3.24
		c0.819,0.721,2.31,1.08,4.47,1.08c2.64,0,5.06-0.199,7.26-0.6c2.199-0.399,4.02-0.84,5.46-1.32v9.6
		c-0.72,0.361-1.551,0.711-2.49,1.051c-0.94,0.34-2.01,0.66-3.21,0.96c-1.2,0.3-2.56,0.54-4.08,0.72
		c-1.521,0.18-3.24,0.27-5.16,0.27c-2.76,0-5.26-0.359-7.5-1.08c-2.241-0.719-4.15-1.809-5.73-3.27
		c-1.581-1.459-2.79-3.279-3.63-5.46c-0.84-2.18-1.26-4.749-1.26-7.71c0-2.92,0.42-5.479,1.26-7.68
		c0.84-2.199,2.049-4.029,3.63-5.49c1.58-1.459,3.489-2.55,5.73-3.27C196.612,437.34,199.112,436.98,201.872,436.98z
		 M201.872,447.66c-1.161,0-2.031,0.3-2.61,0.9c-0.581,0.6-0.87,1.58-0.87,2.939v0.36h6.96v-0.36c0-1.359-0.291-2.34-0.87-2.939
		C203.902,447.96,203.032,447.66,201.872,447.66z"/>
	<path fill="#FFFFFF" d="M240.872,434.34h-3.54v-9.84h17.34v36.84h2.64v9.84h-16.44v-4.08c-0.36,0.48-0.84,1.012-1.44,1.59
		c-0.6,0.581-1.29,1.111-2.07,1.591c-0.78,0.479-1.66,0.891-2.64,1.229c-0.98,0.34-2.031,0.51-3.15,0.51
		c-4.161,0-7.25-1.529-9.27-4.59c-2.021-3.06-3.03-7.369-3.03-12.93c0-5.559,1.009-9.869,3.03-12.93
		c2.02-3.061,5.109-4.59,9.27-4.59c1.119,0,2.169,0.17,3.15,0.51c0.98,0.34,1.86,0.75,2.64,1.23c0.78,0.479,1.47,1.01,2.07,1.59
		s1.08,1.109,1.44,1.59V434.34z M233.912,457.5c0,1.36,0.29,2.34,0.87,2.939c0.58,0.601,1.449,0.9,2.61,0.9
		c1.16,0,2.03-0.3,2.61-0.9c0.579-0.6,0.87-1.579,0.87-2.939v-6c0-1.359-0.291-2.34-0.87-2.939c-0.581-0.601-1.451-0.9-2.61-0.9
		c-1.161,0-2.03,0.3-2.61,0.9c-0.58,0.6-0.87,1.58-0.87,2.939V457.5z"/>
	<path fill="#FFFFFF" d="M298.23,467.1c-0.36,0.48-0.84,1.012-1.44,1.59c-0.6,0.581-1.29,1.111-2.07,1.591
		c-0.779,0.479-1.66,0.891-2.64,1.229c-0.98,0.34-2.03,0.51-3.15,0.51c-4.16,0-7.25-1.529-9.27-4.59
		c-2.021-3.06-3.03-7.369-3.03-12.93c0-5.559,1.009-9.869,3.03-12.93c2.02-3.061,5.109-4.59,9.27-4.59c1.12,0,2.17,0.17,3.15,0.51
		c0.979,0.34,1.86,0.75,2.64,1.23c0.78,0.479,1.471,1.01,2.07,1.59c0.601,0.58,1.08,1.109,1.44,1.59v-4.08h16.439v9.84h-2.64v36.84
		h-17.94v-9.84h4.141V467.1z M291.271,457.5c0,1.36,0.289,2.34,0.87,2.939c0.579,0.601,1.449,0.9,2.609,0.9s2.03-0.3,2.61-0.9
		c0.579-0.6,0.87-1.579,0.87-2.939v-6c0-1.359-0.291-2.34-0.87-2.939c-0.58-0.601-1.45-0.9-2.61-0.9s-2.03,0.3-2.609,0.9
		c-0.581,0.6-0.87,1.58-0.87,2.939V457.5z"/>
	<path fill="#FFFFFF" d="M331.709,457.5c0,1.36,0.29,2.34,0.87,2.939c0.58,0.601,1.449,0.9,2.61,0.9c1.159,0,2.029-0.3,2.61-0.9
		c0.579-0.6,0.869-1.579,0.869-2.939v-9.84h-3.239v-9.84h17.04v23.52h2.64v9.84h-16.44v-4.08c-0.479,0.521-1.03,1.061-1.649,1.621
		c-0.621,0.561-1.33,1.08-2.13,1.56c-0.801,0.479-1.721,0.891-2.76,1.229c-1.041,0.34-2.241,0.51-3.601,0.51
		c-3.28,0-5.87-1.17-7.77-3.51c-1.9-2.34-2.851-6.009-2.851-11.01v-9.84h-2.64v-9.84h16.439V457.5z"/>
	<path fill="#FFFFFF" d="M374.309,436.98c3.08,0,5.641,0.449,7.681,1.35s3.68,2.07,4.92,3.51c1.239,1.44,2.109,3.081,2.609,4.92
		c0.5,1.841,0.75,3.701,0.75,5.58v4.32h-19.439v0.359c0,1.44,0.409,2.521,1.229,3.24c0.819,0.721,2.311,1.08,4.471,1.08
		c2.64,0,5.06-0.199,7.26-0.6c2.199-0.399,4.02-0.84,5.46-1.32v9.6c-0.72,0.361-1.551,0.711-2.49,1.051
		c-0.94,0.34-2.01,0.66-3.21,0.96s-2.561,0.54-4.08,0.72c-1.521,0.18-3.24,0.27-5.16,0.27c-2.76,0-5.26-0.359-7.5-1.08
		c-2.24-0.719-4.15-1.809-5.729-3.27c-1.581-1.459-2.79-3.279-3.63-5.46c-0.84-2.18-1.26-4.749-1.26-7.71
		c0-2.92,0.42-5.479,1.26-7.68c0.84-2.199,2.049-4.029,3.63-5.49c1.579-1.459,3.489-2.55,5.729-3.27
		C369.049,437.34,371.549,436.98,374.309,436.98z M374.309,447.66c-1.16,0-2.03,0.3-2.609,0.9c-0.58,0.6-0.87,1.58-0.87,2.939v0.36
		h6.96v-0.36c0-1.359-0.291-2.34-0.87-2.939C376.339,447.96,375.469,447.66,374.309,447.66z"/>
	<path fill="#FFFFFF" d="M393.089,461.82c3,0.44,5.46,0.73,7.381,0.869c1.92,0.141,3.439,0.211,4.56,0.211
		c1.76,0,2.919-0.141,3.479-0.42s0.841-0.66,0.841-1.141c0-0.52-0.301-0.909-0.9-1.17c-0.6-0.26-1.84-0.529-3.72-0.81
		c-4.161-0.56-7.431-1.76-9.811-3.601c-2.38-1.839-3.569-4.439-3.569-7.8c0-1.56,0.279-3.009,0.84-4.35
		c0.56-1.34,1.46-2.499,2.7-3.479c1.239-0.98,2.829-1.75,4.77-2.311c1.939-0.561,4.27-0.84,6.99-0.84c2.96,0,5.63,0.172,8.01,0.514
		s4.35,0.775,5.91,1.299v8.146c-1.92-0.239-3.86-0.439-5.82-0.6c-1.96-0.159-3.82-0.24-5.58-0.24c-1.68,0-2.87,0.121-3.569,0.359
		c-0.7,0.24-1.051,0.6-1.051,1.078c0,0.239,0.061,0.449,0.181,0.629s0.35,0.339,0.689,0.479s0.811,0.26,1.41,0.359
		c0.601,0.1,1.359,0.189,2.28,0.269c4.64,0.44,8.06,1.577,10.26,3.413c2.199,1.836,3.3,4.449,3.3,7.841
		c0,3.552-1.221,6.356-3.66,8.411s-6.26,3.082-11.46,3.082c-3.04,0-5.811-0.18-8.31-0.539c-2.5-0.36-4.551-0.8-6.15-1.32V461.82z"/>
	<path fill="#FFFFFF" d="M440.549,437.82h8.101v9.84h-8.101v9.84c0,1.36,0.29,2.34,0.87,2.939c0.58,0.601,1.45,0.9,2.61,0.9
		c1.6,0,3.26-0.18,4.98-0.539v9.42c-1.281,0.479-2.812,0.899-4.591,1.26c-1.78,0.359-3.689,0.539-5.729,0.539
		s-3.851-0.22-5.43-0.659c-1.581-0.44-2.91-1.19-3.99-2.25s-1.911-2.45-2.49-4.171c-0.58-1.719-0.87-3.859-0.87-6.42V447.66h-2.64
		v-9.84c1.6,0,2.76-0.41,3.479-1.23c0.721-0.818,1.08-1.869,1.08-3.15v-2.699h12.72V437.82z"/>
	<path fill="#FFFFFF" d="M467.368,461.34h2.641v9.84h-19.08v-9.84h2.64v-13.68h-2.64v-9.84h16.439V461.34z M455.009,424.5h11.04
		v10.02h-11.04V424.5z"/>
	<path fill="#FFFFFF" d="M506.129,454.5c0,2.961-0.42,5.53-1.26,7.71c-0.84,2.181-2.05,4.001-3.63,5.46
		c-1.581,1.461-3.49,2.551-5.73,3.27c-2.24,0.721-4.739,1.08-7.5,1.08c-2.76,0-5.26-0.359-7.5-1.08
		c-2.24-0.719-4.15-1.809-5.729-3.27c-1.581-1.459-2.79-3.279-3.63-5.46c-0.84-2.18-1.26-4.749-1.26-7.71
		c0-2.92,0.42-5.479,1.26-7.68c0.84-2.199,2.049-4.029,3.63-5.49c1.579-1.459,3.489-2.55,5.729-3.27c2.24-0.721,4.74-1.08,7.5-1.08
		c2.761,0,5.26,0.359,7.5,1.08c2.24,0.72,4.149,1.811,5.73,3.27c1.58,1.461,2.79,3.291,3.63,5.49
		C505.709,449.021,506.129,451.58,506.129,454.5z M488.009,461.34c1.16,0,2.03-0.3,2.61-0.9c0.579-0.6,0.87-1.579,0.87-2.939v-6
		c0-1.359-0.291-2.34-0.87-2.939c-0.58-0.601-1.45-0.9-2.61-0.9s-2.03,0.3-2.609,0.9c-0.58,0.6-0.87,1.58-0.87,2.939v6
		c0,1.36,0.29,2.34,0.87,2.939C485.979,461.04,486.849,461.34,488.009,461.34z"/>
	<path fill="#FFFFFF" d="M527.729,461.34h2.641v-9.84c0-1.359-0.291-2.34-0.87-2.939c-0.58-0.601-1.45-0.9-2.61-0.9
		s-2.03,0.3-2.61,0.9c-0.58,0.6-0.869,1.58-0.869,2.939v9.84h2.64v9.84h-19.08v-9.84h2.64v-13.68h-2.64v-9.84h16.44v4.08
		c0.479-0.48,1.02-1.01,1.619-1.59c0.601-0.58,1.311-1.11,2.131-1.59c0.819-0.48,1.749-0.891,2.79-1.23
		c1.039-0.34,2.239-0.51,3.6-0.51c3.279,0,5.87,1.17,7.77,3.51s2.851,6.01,2.851,11.01v9.84h2.64v9.84h-19.08V461.34z"/>
	<path fill="#FFFFFF" d="M549.389,461.82c3,0.44,5.46,0.73,7.381,0.869c1.92,0.141,3.439,0.211,4.56,0.211
		c1.76,0,2.919-0.141,3.479-0.42s0.841-0.66,0.841-1.141c0-0.52-0.301-0.909-0.9-1.17c-0.6-0.26-1.84-0.529-3.72-0.81
		c-4.161-0.56-7.431-1.76-9.811-3.601c-2.38-1.839-3.569-4.439-3.569-7.8c0-1.56,0.279-3.009,0.84-4.35
		c0.56-1.34,1.46-2.499,2.7-3.479c1.239-0.98,2.829-1.75,4.77-2.311c1.939-0.561,4.27-0.84,6.99-0.84c2.96,0,5.63,0.172,8.01,0.514
		s4.35,0.775,5.91,1.299v8.146c-1.92-0.239-3.86-0.439-5.82-0.6c-1.96-0.159-3.82-0.24-5.58-0.24c-1.68,0-2.87,0.121-3.569,0.359
		c-0.7,0.24-1.051,0.6-1.051,1.078c0,0.239,0.061,0.449,0.181,0.629s0.35,0.339,0.689,0.479s0.811,0.26,1.41,0.359
		c0.601,0.1,1.359,0.189,2.28,0.269c4.64,0.44,8.06,1.577,10.26,3.413c2.199,1.836,3.3,4.449,3.3,7.841
		c0,3.552-1.221,6.356-3.66,8.411s-6.26,3.082-11.46,3.082c-3.04,0-5.811-0.18-8.31-0.539c-2.5-0.36-4.551-0.8-6.15-1.32V461.82z"/>
</g>
</svg>
