<svg id="visual" viewBox="0 0 900 600" width="900" height="600" xmlns="http://www.w3.org/2000/svg" xmlns:xlink="http://www.w3.org/1999/xlink" version="1.1"><rect x="0" y="0" width="900" height="600" fill="#002233"></rect><path d="M0 390L21.5 405C43 420 86 450 128.8 451.3C171.7 452.7 214.3 425.3 257.2 425.7C300 426 343 454 385.8 455.5C428.7 457 471.3 432 514.2 436.7C557 441.3 600 475.7 642.8 489.5C685.7 503.3 728.3 496.7 771.2 475.5C814 454.3 857 418.7 878.5 400.8L900 383L900 601L878.5 601C857 601 814 601 771.2 601C728.3 601 685.7 601 642.8 601C600 601 557 601 514.2 601C471.3 601 428.7 601 385.8 601C343 601 300 601 257.2 601C214.3 601 171.7 601 128.8 601C86 601 43 601 21.5 601L0 601Z" fill="#FBAE3C" stroke-linecap="round" stroke-linejoin="miter"></path></svg>